<svg width="505" height="290" viewBox="0 0 505 290" fill="none" xmlns="http://www.w3.org/2000/svg">
<rect width="505" height="290" fill="white"/>
<rect x="5" y="5" width="355" height="140" fill="white" stroke="#222222" stroke-width="10"/>
<rect x="145" y="145" width="355" height="140" fill="white" stroke="#222222" stroke-width="10"/>
<mask id="path-3-outside-1_301_34" maskUnits="userSpaceOnUse" x="34" y="34" width="300" height="85" fill="black">
<rect fill="white" x="34" y="34" width="300" height="85"/>
<path d="M35.6248 37.04H53.3344L61.2304 93.5528H61.456L69.352 37.04H87.0616V116H75.3304V56.216H75.1048L66.0808 116H55.7032L46.6792 56.216H46.4536V116H35.6248V37.04ZM116.061 117.128C110.12 117.128 105.57 115.436 102.412 112.052C99.3289 108.668 97.7873 103.893 97.7873 97.7264V55.3136C97.7873 49.1472 99.3289 44.372 102.412 40.988C105.57 37.604 110.12 35.912 116.061 35.912C122.002 35.912 126.514 37.604 129.597 40.988C132.755 44.372 134.334 49.1472 134.334 55.3136V63.6608H122.603V54.524C122.603 49.636 120.535 47.192 116.399 47.192C112.263 47.192 110.195 49.636 110.195 54.524V98.6288C110.195 103.442 112.263 105.848 116.399 105.848C120.535 105.848 122.603 103.442 122.603 98.6288V86.5592H134.334V97.7264C134.334 103.893 132.755 108.668 129.597 112.052C126.514 115.436 122.002 117.128 116.061 117.128ZM181.933 117.128C175.917 117.128 171.329 115.436 168.171 112.052C165.013 108.593 163.433 103.667 163.433 97.2752V55.7648C163.433 49.3728 165.013 44.4848 168.171 41.1008C171.329 37.6416 175.917 35.912 181.933 35.912C187.949 35.912 192.536 37.6416 195.694 41.1008C198.853 44.4848 200.432 49.3728 200.432 55.7648V62.5328H188.701V54.9752C188.701 49.7864 186.557 47.192 182.271 47.192C177.985 47.192 175.841 49.7864 175.841 54.9752V98.1776C175.841 103.291 177.985 105.848 182.271 105.848C186.557 105.848 188.701 103.291 188.701 98.1776V82.724H182.497V71.444H200.432V97.2752C200.432 103.667 198.853 108.593 195.694 112.052C192.536 115.436 187.949 117.128 181.933 117.128ZM210.654 37.04H244.494V48.32H223.062V69.188H240.095V80.468H223.062V104.72H244.494V116H210.654V37.04ZM263.589 48.32H250.617V37.04H288.969V48.32H275.997V116H263.589V48.32ZM313.363 117.128C307.347 117.128 302.797 115.436 299.714 112.052C296.631 108.593 295.089 103.667 295.089 97.2752V92.7632H306.821V98.1776C306.821 103.291 308.964 105.848 313.25 105.848C315.356 105.848 316.935 105.246 317.988 104.043C319.116 102.765 319.68 100.734 319.68 97.952C319.68 94.6432 318.928 91.748 317.424 89.2664C315.92 86.7096 313.137 83.664 309.077 80.1296C303.963 75.6176 300.391 71.5568 298.361 67.9472C296.33 64.2624 295.315 60.1264 295.315 55.5392C295.315 49.2976 296.894 44.4848 300.053 41.1008C303.211 37.6416 307.798 35.912 313.814 35.912C319.755 35.912 324.229 37.6416 327.237 41.1008C330.321 44.4848 331.862 49.3728 331.862 55.7648V59.036H320.131V54.9752C320.131 52.268 319.605 50.3128 318.552 49.1096C317.499 47.8312 315.957 47.192 313.927 47.192C309.791 47.192 307.723 49.7112 307.723 54.7496C307.723 57.6072 308.475 60.2768 309.979 62.7584C311.558 65.24 314.378 68.248 318.439 71.7824C323.628 76.2944 327.2 80.3928 329.155 84.0776C331.11 87.7624 332.088 92.0864 332.088 97.0496C332.088 103.517 330.471 108.48 327.237 111.939C324.079 115.398 319.454 117.128 313.363 117.128Z"/>
</mask>
<path d="M35.6248 37.04H53.3344L61.2304 93.5528H61.456L69.352 37.04H87.0616V116H75.3304V56.216H75.1048L66.0808 116H55.7032L46.6792 56.216H46.4536V116H35.6248V37.04ZM116.061 117.128C110.12 117.128 105.57 115.436 102.412 112.052C99.3289 108.668 97.7873 103.893 97.7873 97.7264V55.3136C97.7873 49.1472 99.3289 44.372 102.412 40.988C105.57 37.604 110.12 35.912 116.061 35.912C122.002 35.912 126.514 37.604 129.597 40.988C132.755 44.372 134.334 49.1472 134.334 55.3136V63.6608H122.603V54.524C122.603 49.636 120.535 47.192 116.399 47.192C112.263 47.192 110.195 49.636 110.195 54.524V98.6288C110.195 103.442 112.263 105.848 116.399 105.848C120.535 105.848 122.603 103.442 122.603 98.6288V86.5592H134.334V97.7264C134.334 103.893 132.755 108.668 129.597 112.052C126.514 115.436 122.002 117.128 116.061 117.128ZM181.933 117.128C175.917 117.128 171.329 115.436 168.171 112.052C165.013 108.593 163.433 103.667 163.433 97.2752V55.7648C163.433 49.3728 165.013 44.4848 168.171 41.1008C171.329 37.6416 175.917 35.912 181.933 35.912C187.949 35.912 192.536 37.6416 195.694 41.1008C198.853 44.4848 200.432 49.3728 200.432 55.7648V62.5328H188.701V54.9752C188.701 49.7864 186.557 47.192 182.271 47.192C177.985 47.192 175.841 49.7864 175.841 54.9752V98.1776C175.841 103.291 177.985 105.848 182.271 105.848C186.557 105.848 188.701 103.291 188.701 98.1776V82.724H182.497V71.444H200.432V97.2752C200.432 103.667 198.853 108.593 195.694 112.052C192.536 115.436 187.949 117.128 181.933 117.128ZM210.654 37.04H244.494V48.32H223.062V69.188H240.095V80.468H223.062V104.72H244.494V116H210.654V37.04ZM263.589 48.32H250.617V37.04H288.969V48.32H275.997V116H263.589V48.32ZM313.363 117.128C307.347 117.128 302.797 115.436 299.714 112.052C296.631 108.593 295.089 103.667 295.089 97.2752V92.7632H306.821V98.1776C306.821 103.291 308.964 105.848 313.25 105.848C315.356 105.848 316.935 105.246 317.988 104.043C319.116 102.765 319.68 100.734 319.68 97.952C319.68 94.6432 318.928 91.748 317.424 89.2664C315.92 86.7096 313.137 83.664 309.077 80.1296C303.963 75.6176 300.391 71.5568 298.361 67.9472C296.33 64.2624 295.315 60.1264 295.315 55.5392C295.315 49.2976 296.894 44.4848 300.053 41.1008C303.211 37.6416 307.798 35.912 313.814 35.912C319.755 35.912 324.229 37.6416 327.237 41.1008C330.321 44.4848 331.862 49.3728 331.862 55.7648V59.036H320.131V54.9752C320.131 52.268 319.605 50.3128 318.552 49.1096C317.499 47.8312 315.957 47.192 313.927 47.192C309.791 47.192 307.723 49.7112 307.723 54.7496C307.723 57.6072 308.475 60.2768 309.979 62.7584C311.558 65.24 314.378 68.248 318.439 71.7824C323.628 76.2944 327.2 80.3928 329.155 84.0776C331.11 87.7624 332.088 92.0864 332.088 97.0496C332.088 103.517 330.471 108.48 327.237 111.939C324.079 115.398 319.454 117.128 313.363 117.128Z" fill="#222222"/>
<path d="M35.6248 37.04V36.04H34.6248V37.04H35.6248ZM53.3344 37.04L54.3248 36.9016L54.2044 36.04H53.3344V37.04ZM61.2304 93.5528L60.24 93.6912L60.3604 94.5528H61.2304V93.5528ZM61.456 93.5528V94.5528H62.326L62.4464 93.6912L61.456 93.5528ZM69.352 37.04V36.04H68.482L68.3616 36.9016L69.352 37.04ZM87.0616 37.04H88.0616V36.04H87.0616V37.04ZM87.0616 116V117H88.0616V116H87.0616ZM75.3304 116H74.3304V117H75.3304V116ZM75.3304 56.216H76.3304V55.216H75.3304V56.216ZM75.1048 56.216V55.216H74.2444L74.116 56.0667L75.1048 56.216ZM66.0808 116V117H66.9412L67.0696 116.149L66.0808 116ZM55.7032 116L54.7144 116.149L54.8428 117H55.7032V116ZM46.6792 56.216L47.668 56.0667L47.5396 55.216H46.6792V56.216ZM46.4536 56.216V55.216H45.4536V56.216H46.4536ZM46.4536 116V117H47.4536V116H46.4536ZM35.6248 116H34.6248V117H35.6248V116ZM35.6248 38.04H53.3344V36.04H35.6248V38.04ZM52.344 37.1784L60.24 93.6912L62.2208 93.4144L54.3248 36.9016L52.344 37.1784ZM61.2304 94.5528H61.456V92.5528H61.2304V94.5528ZM62.4464 93.6912L70.3424 37.1784L68.3616 36.9016L60.4656 93.4144L62.4464 93.6912ZM69.352 38.04H87.0616V36.04H69.352V38.04ZM86.0616 37.04V116H88.0616V37.04H86.0616ZM87.0616 115H75.3304V117H87.0616V115ZM76.3304 116V56.216H74.3304V116H76.3304ZM75.3304 55.216H75.1048V57.216H75.3304V55.216ZM74.116 56.0667L65.092 115.851L67.0696 116.149L76.0936 56.3652L74.116 56.0667ZM66.0808 115H55.7032V117H66.0808V115ZM56.692 115.851L47.668 56.0667L45.6904 56.3652L54.7144 116.149L56.692 115.851ZM46.6792 55.216H46.4536V57.216H46.6792V55.216ZM45.4536 56.216V116H47.4536V56.216H45.4536ZM46.4536 115H35.6248V117H46.4536V115ZM36.6248 116V37.04H34.6248V116H36.6248ZM102.412 112.052L101.673 112.726L101.681 112.734L102.412 112.052ZM102.412 40.988L101.681 40.3056L101.673 40.3145L102.412 40.988ZM129.597 40.988L128.858 41.6615L128.866 41.6703L129.597 40.988ZM134.334 63.6608V64.6608H135.334V63.6608H134.334ZM122.603 63.6608H121.603V64.6608H122.603V63.6608ZM122.603 86.5592V85.5592H121.603V86.5592H122.603ZM134.334 86.5592H135.334V85.5592H134.334V86.5592ZM129.597 112.052L128.866 111.37L128.858 111.379L129.597 112.052ZM116.061 116.128C110.314 116.128 106.062 114.497 103.143 111.37L101.681 112.734C105.079 116.375 109.926 118.128 116.061 118.128V116.128ZM103.151 111.379C100.287 108.235 98.7873 103.731 98.7873 97.7264H96.7873C96.7873 104.054 98.3709 109.101 101.673 112.725L103.151 111.379ZM98.7873 97.7264V55.3136H96.7873V97.7264H98.7873ZM98.7873 55.3136C98.7873 49.3086 100.287 44.8054 103.151 41.6615L101.673 40.3145C98.3709 43.9386 96.7873 48.9858 96.7873 55.3136H98.7873ZM103.143 41.6703C106.062 38.5426 110.314 36.912 116.061 36.912V34.912C109.926 34.912 105.079 36.6654 101.681 40.3057L103.143 41.6703ZM116.061 36.912C121.809 36.912 126.016 38.543 128.858 41.6615L130.336 40.3145C127.011 36.6649 122.194 34.912 116.061 34.912V36.912ZM128.866 41.6703C131.801 44.8146 133.334 49.3144 133.334 55.3136H135.334C135.334 48.9799 133.71 43.9294 130.328 40.3057L128.866 41.6703ZM133.334 55.3136V63.6608H135.334V55.3136H133.334ZM134.334 62.6608H122.603V64.6608H134.334V62.6608ZM123.603 63.6608V54.524H121.603V63.6608H123.603ZM123.603 54.524C123.603 51.9629 123.065 49.8556 121.816 48.3791C120.539 46.8706 118.669 46.192 116.399 46.192V48.192C118.265 48.192 119.497 48.7354 120.289 49.6709C121.108 50.6384 121.603 52.1971 121.603 54.524H123.603ZM116.399 46.192C114.129 46.192 112.259 46.8706 110.983 48.3791C109.734 49.8556 109.195 51.9629 109.195 54.524H111.195C111.195 52.1971 111.691 50.6384 112.51 49.6709C113.301 48.7354 114.533 48.192 116.399 48.192V46.192ZM109.195 54.524V98.6288H111.195V54.524H109.195ZM109.195 98.6288C109.195 101.155 109.735 103.237 110.988 104.695C112.266 106.182 114.134 106.848 116.399 106.848V104.848C114.528 104.848 113.295 104.311 112.505 103.391C111.69 102.443 111.195 100.915 111.195 98.6288H109.195ZM116.399 106.848C118.664 106.848 120.533 106.182 121.811 104.695C123.064 103.237 123.603 101.155 123.603 98.6288H121.603C121.603 100.915 121.109 102.443 120.294 103.391C119.504 104.311 118.27 104.848 116.399 104.848V106.848ZM123.603 98.6288V86.5592H121.603V98.6288H123.603ZM122.603 87.5592H134.334V85.5592H122.603V87.5592ZM133.334 86.5592V97.7264H135.334V86.5592H133.334ZM133.334 97.7264C133.334 103.726 131.801 108.225 128.866 111.37L130.328 112.734C133.71 109.111 135.334 104.06 135.334 97.7264H133.334ZM128.858 111.379C126.016 114.497 121.809 116.128 116.061 116.128V118.128C122.194 118.128 127.011 116.375 130.336 112.725L128.858 111.379ZM168.171 112.052L167.432 112.726L167.44 112.734L168.171 112.052ZM168.171 41.1008L168.902 41.7832L168.909 41.7751L168.171 41.1008ZM195.694 41.1008L194.956 41.7751L194.963 41.7831L195.694 41.1008ZM200.432 62.5328V63.5328H201.432V62.5328H200.432ZM188.701 62.5328H187.701V63.5328H188.701V62.5328ZM188.701 82.724H189.701V81.724H188.701V82.724ZM182.497 82.724H181.497V83.724H182.497V82.724ZM182.497 71.444V70.444H181.497V71.444H182.497ZM200.432 71.444H201.432V70.444H200.432V71.444ZM195.694 112.052L196.425 112.734L196.433 112.726L195.694 112.052ZM181.933 116.128C176.106 116.128 171.819 114.495 168.902 111.37L167.44 112.734C170.84 116.377 175.727 118.128 181.933 118.128V116.128ZM168.909 111.378C165.972 108.161 164.433 103.51 164.433 97.2752H162.433C162.433 103.825 164.053 109.025 167.432 112.726L168.909 111.378ZM164.433 97.2752V55.7648H162.433V97.2752H164.433ZM164.433 55.7648C164.433 49.5287 165.973 44.9213 168.902 41.7831L167.44 40.4185C164.052 44.0483 162.433 49.2169 162.433 55.7648H164.433ZM168.909 41.7751C171.828 38.5787 176.113 36.912 181.933 36.912V34.912C175.72 34.912 170.831 36.7045 167.432 40.4265L168.909 41.7751ZM181.933 36.912C187.752 36.912 192.037 38.5787 194.956 41.7751L196.433 40.4265C193.034 36.7045 188.145 34.912 181.933 34.912V36.912ZM194.963 41.7831C197.892 44.9213 199.432 49.5287 199.432 55.7648H201.432C201.432 49.2169 199.813 44.0483 196.425 40.4185L194.963 41.7831ZM199.432 55.7648V62.5328H201.432V55.7648H199.432ZM200.432 61.5328H188.701V63.5328H200.432V61.5328ZM189.701 62.5328V54.9752H187.701V62.5328H189.701ZM189.701 54.9752C189.701 52.2682 189.145 50.052 187.864 48.5009C186.553 46.9133 184.624 46.192 182.271 46.192V48.192C184.204 48.192 185.491 48.7679 186.322 49.7747C187.184 50.818 187.701 52.4934 187.701 54.9752H189.701ZM182.271 46.192C179.918 46.192 177.989 46.9133 176.678 48.5009C175.397 50.052 174.841 52.2682 174.841 54.9752H176.841C176.841 52.4934 177.358 50.818 178.22 49.7747C179.051 48.7679 180.338 48.192 182.271 48.192V46.192ZM174.841 54.9752V98.1776H176.841V54.9752H174.841ZM174.841 98.1776C174.841 100.85 175.398 103.04 176.682 104.573C177.995 106.139 179.923 106.848 182.271 106.848V104.848C180.333 104.848 179.045 104.278 178.215 103.288C177.357 102.264 176.841 100.619 176.841 98.1776H174.841ZM182.271 106.848C184.619 106.848 186.546 106.139 187.86 104.573C189.144 103.04 189.701 100.85 189.701 98.1776H187.701C187.701 100.619 187.185 102.264 186.327 103.288C185.497 104.278 184.209 104.848 182.271 104.848V106.848ZM189.701 98.1776V82.724H187.701V98.1776H189.701ZM188.701 81.724H182.497V83.724H188.701V81.724ZM183.497 82.724V71.444H181.497V82.724H183.497ZM182.497 72.444H200.432V70.444H182.497V72.444ZM199.432 71.444V97.2752H201.432V71.444H199.432ZM199.432 97.2752C199.432 103.51 197.893 108.161 194.956 111.378L196.433 112.726C199.812 109.025 201.432 103.825 201.432 97.2752H199.432ZM194.963 111.37C192.046 114.495 187.759 116.128 181.933 116.128V118.128C188.138 118.128 193.025 116.377 196.425 112.734L194.963 111.37ZM210.654 37.04V36.04H209.654V37.04H210.654ZM244.494 37.04H245.494V36.04H244.494V37.04ZM244.494 48.32V49.32H245.494V48.32H244.494ZM223.062 48.32V47.32H222.062V48.32H223.062ZM223.062 69.188H222.062V70.188H223.062V69.188ZM240.095 69.188H241.095V68.188H240.095V69.188ZM240.095 80.468V81.468H241.095V80.468H240.095ZM223.062 80.468V79.468H222.062V80.468H223.062ZM223.062 104.72H222.062V105.72H223.062V104.72ZM244.494 104.72H245.494V103.72H244.494V104.72ZM244.494 116V117H245.494V116H244.494ZM210.654 116H209.654V117H210.654V116ZM210.654 38.04H244.494V36.04H210.654V38.04ZM243.494 37.04V48.32H245.494V37.04H243.494ZM244.494 47.32H223.062V49.32H244.494V47.32ZM222.062 48.32V69.188H224.062V48.32H222.062ZM223.062 70.188H240.095V68.188H223.062V70.188ZM239.095 69.188V80.468H241.095V69.188H239.095ZM240.095 79.468H223.062V81.468H240.095V79.468ZM222.062 80.468V104.72H224.062V80.468H222.062ZM223.062 105.72H244.494V103.72H223.062V105.72ZM243.494 104.72V116H245.494V104.72H243.494ZM244.494 115H210.654V117H244.494V115ZM211.654 116V37.04H209.654V116H211.654ZM263.589 48.32H264.589V47.32H263.589V48.32ZM250.617 48.32H249.617V49.32H250.617V48.32ZM250.617 37.04V36.04H249.617V37.04H250.617ZM288.969 37.04H289.969V36.04H288.969V37.04ZM288.969 48.32V49.32H289.969V48.32H288.969ZM275.997 48.32V47.32H274.997V48.32H275.997ZM275.997 116V117H276.997V116H275.997ZM263.589 116H262.589V117H263.589V116ZM263.589 47.32H250.617V49.32H263.589V47.32ZM251.617 48.32V37.04H249.617V48.32H251.617ZM250.617 38.04H288.969V36.04H250.617V38.04ZM287.969 37.04V48.32H289.969V37.04H287.969ZM288.969 47.32H275.997V49.32H288.969V47.32ZM274.997 48.32V116H276.997V48.32H274.997ZM275.997 115H263.589V117H275.997V115ZM264.589 116V48.32H262.589V116H264.589ZM299.714 112.052L298.968 112.717L298.975 112.725L299.714 112.052ZM295.089 92.7632V91.7632H294.089V92.7632H295.089ZM306.821 92.7632H307.821V91.7632H306.821V92.7632ZM317.988 104.043L317.238 103.382L317.235 103.385L317.988 104.043ZM317.424 89.2664L316.562 89.7735L316.569 89.7847L317.424 89.2664ZM309.077 80.1296L308.415 80.8795L308.42 80.8839L309.077 80.1296ZM298.361 67.9472L297.485 68.4298L297.489 68.4375L298.361 67.9472ZM300.053 41.1008L300.784 41.7832L300.791 41.7751L300.053 41.1008ZM327.237 41.1008L326.483 41.757L326.49 41.7657L326.498 41.7743L327.237 41.1008ZM331.862 59.036V60.036H332.862V59.036H331.862ZM320.131 59.036H319.131V60.036H320.131V59.036ZM318.552 49.1096L317.78 49.7453L317.789 49.7568L317.799 49.7681L318.552 49.1096ZM309.979 62.7584L309.124 63.2767L309.13 63.286L309.135 63.2953L309.979 62.7584ZM318.439 71.7824L317.783 72.5367L317.783 72.537L318.439 71.7824ZM329.155 84.0776L328.272 84.5463L329.155 84.0776ZM327.237 111.939L326.507 111.256L326.499 111.265L327.237 111.939ZM313.363 116.128C307.535 116.128 303.292 114.494 300.453 111.379L298.975 112.725C302.303 116.378 307.159 118.128 313.363 118.128V116.128ZM300.461 111.387C297.594 108.17 296.089 103.515 296.089 97.2752H294.089C294.089 103.819 295.668 109.016 298.968 112.717L300.461 111.387ZM296.089 97.2752V92.7632H294.089V97.2752H296.089ZM295.089 93.7632H306.821V91.7632H295.089V93.7632ZM305.821 92.7632V98.1776H307.821V92.7632H305.821ZM305.821 98.1776C305.821 100.85 306.377 103.04 307.662 104.573C308.975 106.139 310.902 106.848 313.25 106.848V104.848C311.312 104.848 310.025 104.278 309.194 103.288C308.336 102.264 307.821 100.619 307.821 98.1776H305.821ZM313.25 106.848C315.547 106.848 317.442 106.186 318.74 104.702L317.235 103.385C316.428 104.307 315.164 104.848 313.25 104.848V106.848ZM318.738 104.705C320.102 103.159 320.68 100.834 320.68 97.952H318.68C318.68 100.635 318.13 102.371 317.238 103.382L318.738 104.705ZM320.68 97.952C320.68 94.4866 319.891 91.407 318.279 88.7481L316.569 89.7847C317.965 92.089 318.68 94.7998 318.68 97.952H320.68ZM318.286 88.7594C316.7 86.0627 313.82 82.9327 309.733 79.3753L308.42 80.8839C312.455 84.3953 315.14 87.3565 316.562 89.7734L318.286 88.7594ZM309.738 79.3798C304.662 74.9004 301.184 70.9261 299.232 67.4569L297.489 68.4375C299.599 72.1875 303.264 76.3348 308.415 80.8794L309.738 79.3798ZM299.237 67.4646C297.295 63.9407 296.315 59.9733 296.315 55.5392H294.315C294.315 60.2795 295.366 64.5841 297.485 68.4298L299.237 67.4646ZM296.315 55.5392C296.315 49.461 297.851 44.9253 300.784 41.7831L299.322 40.4185C295.938 44.0443 294.315 49.1342 294.315 55.5392H296.315ZM300.791 41.7751C303.71 38.5787 307.994 36.912 313.814 36.912V34.912C307.602 34.912 302.713 36.7045 299.314 40.4265L300.791 41.7751ZM313.814 36.912C319.557 36.912 323.718 38.5768 326.483 41.757L327.992 40.4446C324.741 36.7064 319.953 34.912 313.814 34.912V36.912ZM326.498 41.7743C329.357 44.9122 330.862 49.523 330.862 55.7648H332.862C332.862 49.2226 331.284 44.0574 327.977 40.4273L326.498 41.7743ZM330.862 55.7648V59.036H332.862V55.7648H330.862ZM331.862 58.036H320.131V60.036H331.862V58.036ZM321.131 59.036V54.9752H319.131V59.036H321.131ZM321.131 54.9752C321.131 52.1805 320.595 49.9265 319.304 48.4511L317.799 49.7681C318.614 50.6991 319.131 52.3555 319.131 54.9752H321.131ZM319.324 48.4739C318.038 46.9131 316.182 46.192 313.927 46.192V48.192C315.733 48.192 316.96 48.7493 317.78 49.7453L319.324 48.4739ZM313.927 46.192C311.647 46.192 309.774 46.8959 308.501 48.4469C307.259 49.9601 306.723 52.1189 306.723 54.7496H308.723C308.723 52.3419 309.221 50.7219 310.047 49.7159C310.842 48.7477 312.071 48.192 313.927 48.192V46.192ZM306.723 54.7496C306.723 57.7929 307.527 60.6414 309.124 63.2767L310.834 62.2401C309.423 59.9122 308.723 57.4215 308.723 54.7496H306.723ZM309.135 63.2953C310.792 65.8992 313.699 68.9823 317.783 72.5367L319.096 71.0281C315.058 67.5137 312.324 64.5808 310.823 62.2215L309.135 63.2953ZM317.783 72.537C322.931 77.0138 326.399 81.0177 328.272 84.5463L330.038 83.6089C328 79.7679 324.325 75.575 319.095 71.0278L317.783 72.537ZM328.272 84.5463C330.137 88.0617 331.088 92.2189 331.088 97.0496H333.088C333.088 91.9539 332.084 87.4631 330.038 83.6089L328.272 84.5463ZM331.088 97.0496C331.088 103.357 329.512 108.041 326.507 111.256L327.968 112.622C331.43 108.919 333.088 103.676 333.088 97.0496H331.088ZM326.499 111.265C323.583 114.459 319.263 116.128 313.363 116.128V118.128C319.646 118.128 324.575 116.338 327.976 112.613L326.499 111.265Z" fill="#222222" mask="url(#path-3-outside-1_301_34)"/>
<mask id="path-5-outside-2_301_34" maskUnits="userSpaceOnUse" x="199" y="174" width="247" height="85" fill="black">
<rect fill="white" x="199" y="174" width="247" height="85"/>
<path d="M200.354 177.04H212.874L220.996 238.29H221.222L229.343 177.04H240.736L228.779 256H212.31L200.354 177.04ZM248.952 177.04H261.36V256H248.952V177.04ZM289.039 257.128C283.023 257.128 278.473 255.436 275.39 252.052C272.307 248.593 270.765 243.667 270.765 237.275V232.763H282.497V238.178C282.497 243.291 284.64 245.848 288.926 245.848C291.032 245.848 292.611 245.246 293.664 244.043C294.792 242.765 295.356 240.734 295.356 237.952C295.356 234.643 294.604 231.748 293.1 229.266C291.596 226.71 288.813 223.664 284.753 220.13C279.639 215.618 276.067 211.557 274.037 207.947C272.006 204.262 270.991 200.126 270.991 195.539C270.991 189.298 272.57 184.485 275.729 181.101C278.887 177.642 283.474 175.912 289.49 175.912C295.431 175.912 299.905 177.642 302.913 181.101C305.997 184.485 307.538 189.373 307.538 195.765V199.036H295.807V194.975C295.807 192.268 295.281 190.313 294.228 189.11C293.175 187.831 291.633 187.192 289.603 187.192C285.467 187.192 283.399 189.711 283.399 194.75C283.399 197.607 284.151 200.277 285.655 202.758C287.234 205.24 290.054 208.248 294.115 211.782C299.304 216.294 302.876 220.393 304.831 224.078C306.786 227.762 307.764 232.086 307.764 237.05C307.764 243.517 306.147 248.48 302.913 251.939C299.755 255.398 295.13 257.128 289.039 257.128ZM335.182 257.128C329.166 257.128 324.579 255.436 321.421 252.052C318.262 248.593 316.683 243.667 316.683 237.275V177.04H329.091V238.178C329.091 240.885 329.617 242.84 330.67 244.043C331.798 245.246 333.377 245.848 335.408 245.848C337.438 245.848 338.98 245.246 340.033 244.043C341.161 242.84 341.725 240.885 341.725 238.178V177.04H353.681V237.275C353.681 243.667 352.102 248.593 348.944 252.052C345.785 255.436 341.198 257.128 335.182 257.128ZM374.142 177.04H390.949L403.809 256H391.401L389.145 240.321V240.546H375.045L372.789 256H361.283L374.142 177.04ZM387.678 229.83L382.151 190.802H381.925L376.511 229.83H387.678ZM412.084 177.04H424.492V244.72H444.909V256H412.084V177.04Z"/>
</mask>
<path d="M200.354 177.04H212.874L220.996 238.29H221.222L229.343 177.04H240.736L228.779 256H212.31L200.354 177.04ZM248.952 177.04H261.36V256H248.952V177.04ZM289.039 257.128C283.023 257.128 278.473 255.436 275.39 252.052C272.307 248.593 270.765 243.667 270.765 237.275V232.763H282.497V238.178C282.497 243.291 284.64 245.848 288.926 245.848C291.032 245.848 292.611 245.246 293.664 244.043C294.792 242.765 295.356 240.734 295.356 237.952C295.356 234.643 294.604 231.748 293.1 229.266C291.596 226.71 288.813 223.664 284.753 220.13C279.639 215.618 276.067 211.557 274.037 207.947C272.006 204.262 270.991 200.126 270.991 195.539C270.991 189.298 272.57 184.485 275.729 181.101C278.887 177.642 283.474 175.912 289.49 175.912C295.431 175.912 299.905 177.642 302.913 181.101C305.997 184.485 307.538 189.373 307.538 195.765V199.036H295.807V194.975C295.807 192.268 295.281 190.313 294.228 189.11C293.175 187.831 291.633 187.192 289.603 187.192C285.467 187.192 283.399 189.711 283.399 194.75C283.399 197.607 284.151 200.277 285.655 202.758C287.234 205.24 290.054 208.248 294.115 211.782C299.304 216.294 302.876 220.393 304.831 224.078C306.786 227.762 307.764 232.086 307.764 237.05C307.764 243.517 306.147 248.48 302.913 251.939C299.755 255.398 295.13 257.128 289.039 257.128ZM335.182 257.128C329.166 257.128 324.579 255.436 321.421 252.052C318.262 248.593 316.683 243.667 316.683 237.275V177.04H329.091V238.178C329.091 240.885 329.617 242.84 330.67 244.043C331.798 245.246 333.377 245.848 335.408 245.848C337.438 245.848 338.98 245.246 340.033 244.043C341.161 242.84 341.725 240.885 341.725 238.178V177.04H353.681V237.275C353.681 243.667 352.102 248.593 348.944 252.052C345.785 255.436 341.198 257.128 335.182 257.128ZM374.142 177.04H390.949L403.809 256H391.401L389.145 240.321V240.546H375.045L372.789 256H361.283L374.142 177.04ZM387.678 229.83L382.151 190.802H381.925L376.511 229.83H387.678ZM412.084 177.04H424.492V244.72H444.909V256H412.084V177.04Z" fill="#222222"/>
<path d="M200.354 177.04V176.04H199.191L199.365 177.19L200.354 177.04ZM212.874 177.04L213.866 176.909L213.751 176.04H212.874V177.04ZM220.996 238.29L220.005 238.422L220.12 239.29H220.996V238.29ZM221.222 238.29V239.29H222.098L222.213 238.422L221.222 238.29ZM229.343 177.04V176.04H228.467L228.352 176.909L229.343 177.04ZM240.736 177.04L241.725 177.19L241.899 176.04H240.736V177.04ZM228.779 256V257H229.639L229.768 256.15L228.779 256ZM212.31 256L211.322 256.15L211.45 257H212.31V256ZM200.354 178.04H212.874V176.04H200.354V178.04ZM211.883 177.171L220.005 238.422L221.987 238.159L213.866 176.909L211.883 177.171ZM220.996 239.29H221.222V237.29H220.996V239.29ZM222.213 238.422L230.335 177.171L228.352 176.909L220.23 238.159L222.213 238.422ZM229.343 178.04H240.736V176.04H229.343V178.04ZM239.747 176.89L227.79 255.85L229.768 256.15L241.725 177.19L239.747 176.89ZM228.779 255H212.31V257H228.779V255ZM213.299 255.85L201.342 176.89L199.365 177.19L211.322 256.15L213.299 255.85ZM248.952 177.04V176.04H247.952V177.04H248.952ZM261.36 177.04H262.36V176.04H261.36V177.04ZM261.36 256V257H262.36V256H261.36ZM248.952 256H247.952V257H248.952V256ZM248.952 178.04H261.36V176.04H248.952V178.04ZM260.36 177.04V256H262.36V177.04H260.36ZM261.36 255H248.952V257H261.36V255ZM249.952 256V177.04H247.952V256H249.952ZM275.39 252.052L274.644 252.717L274.651 252.725L275.39 252.052ZM270.765 232.763V231.763H269.765V232.763H270.765ZM282.497 232.763H283.497V231.763H282.497V232.763ZM293.664 244.043L292.914 243.382L292.911 243.385L293.664 244.043ZM293.1 229.266L292.238 229.773L292.245 229.785L293.1 229.266ZM284.753 220.13L284.091 220.879L284.096 220.884L284.753 220.13ZM274.037 207.947L273.161 208.43L273.165 208.437L274.037 207.947ZM275.729 181.101L276.46 181.783L276.467 181.775L275.729 181.101ZM302.913 181.101L302.159 181.757L302.166 181.766L302.174 181.774L302.913 181.101ZM307.538 199.036V200.036H308.538V199.036H307.538ZM295.807 199.036H294.807V200.036H295.807V199.036ZM294.228 189.11L293.456 189.745L293.465 189.757L293.475 189.768L294.228 189.11ZM285.655 202.758L284.8 203.277L284.806 203.286L284.811 203.295L285.655 202.758ZM294.115 211.782L293.459 212.537L293.459 212.537L294.115 211.782ZM304.831 224.078L303.948 224.546L304.831 224.078ZM302.913 251.939L302.183 251.256L302.175 251.265L302.913 251.939ZM289.039 256.128C283.211 256.128 278.968 254.494 276.129 251.379L274.651 252.725C277.979 256.378 282.835 258.128 289.039 258.128V256.128ZM276.137 251.387C273.27 248.17 271.765 243.515 271.765 237.275H269.765C269.765 243.819 271.344 249.016 274.644 252.717L276.137 251.387ZM271.765 237.275V232.763H269.765V237.275H271.765ZM270.765 233.763H282.497V231.763H270.765V233.763ZM281.497 232.763V238.178H283.497V232.763H281.497ZM281.497 238.178C281.497 240.85 282.053 243.04 283.338 244.573C284.651 246.139 286.578 246.848 288.926 246.848V244.848C286.988 244.848 285.701 244.278 284.87 243.288C284.012 242.264 283.497 240.619 283.497 238.178H281.497ZM288.926 246.848C291.223 246.848 293.118 246.186 294.416 244.702L292.911 243.385C292.104 244.307 290.84 244.848 288.926 244.848V246.848ZM294.414 244.705C295.778 243.159 296.356 240.834 296.356 237.952H294.356C294.356 240.635 293.806 242.371 292.914 243.382L294.414 244.705ZM296.356 237.952C296.356 234.487 295.566 231.407 293.955 228.748L292.245 229.785C293.641 232.089 294.356 234.8 294.356 237.952H296.356ZM293.962 228.759C292.376 226.063 289.496 222.933 285.409 219.375L284.096 220.884C288.131 224.395 290.816 227.356 292.238 229.773L293.962 228.759ZM285.414 219.38C280.338 214.9 276.86 210.926 274.908 207.457L273.165 208.437C275.274 212.188 278.94 216.335 284.091 220.879L285.414 219.38ZM274.913 207.465C272.971 203.941 271.991 199.973 271.991 195.539H269.991C269.991 200.28 271.042 204.584 273.161 208.43L274.913 207.465ZM271.991 195.539C271.991 189.461 273.527 184.925 276.46 181.783L274.998 180.418C271.614 184.044 269.991 189.134 269.991 195.539H271.991ZM276.467 181.775C279.386 178.579 283.67 176.912 289.49 176.912V174.912C283.278 174.912 278.389 176.704 274.99 180.427L276.467 181.775ZM289.49 176.912C295.233 176.912 299.394 178.577 302.159 181.757L303.668 180.445C300.417 176.706 295.629 174.912 289.49 174.912V176.912ZM302.174 181.774C305.033 184.912 306.538 189.523 306.538 195.765H308.538C308.538 189.223 306.96 184.057 303.653 180.427L302.174 181.774ZM306.538 195.765V199.036H308.538V195.765H306.538ZM307.538 198.036H295.807V200.036H307.538V198.036ZM296.807 199.036V194.975H294.807V199.036H296.807ZM296.807 194.975C296.807 192.181 296.271 189.927 294.98 188.451L293.475 189.768C294.29 190.699 294.807 192.355 294.807 194.975H296.807ZM295 188.474C293.714 186.913 291.858 186.192 289.603 186.192V188.192C291.409 188.192 292.636 188.749 293.456 189.745L295 188.474ZM289.603 186.192C287.323 186.192 285.45 186.896 284.177 188.447C282.935 189.96 282.399 192.119 282.399 194.75H284.399C284.399 192.342 284.897 190.722 285.723 189.716C286.518 188.748 287.747 188.192 289.603 188.192V186.192ZM282.399 194.75C282.399 197.793 283.203 200.641 284.8 203.277L286.51 202.24C285.099 199.912 284.399 197.421 284.399 194.75H282.399ZM284.811 203.295C286.468 205.899 289.375 208.982 293.459 212.537L294.772 211.028C290.734 207.514 288 204.581 286.499 202.222L284.811 203.295ZM293.459 212.537C298.607 217.014 302.075 221.018 303.948 224.546L305.714 223.609C303.676 219.768 300.001 215.575 294.771 211.028L293.459 212.537ZM303.948 224.546C305.813 228.062 306.764 232.219 306.764 237.05H308.764C308.764 231.954 307.76 227.463 305.714 223.609L303.948 224.546ZM306.764 237.05C306.764 243.357 305.188 248.041 302.183 251.256L303.644 252.622C307.106 248.919 308.764 243.676 308.764 237.05H306.764ZM302.175 251.265C299.259 254.459 294.939 256.128 289.039 256.128V258.128C295.322 258.128 300.251 256.338 303.652 252.613L302.175 251.265ZM321.421 252.052L320.682 252.726L320.69 252.734L321.421 252.052ZM316.683 177.04V176.04H315.683V177.04H316.683ZM329.091 177.04H330.091V176.04H329.091V177.04ZM330.67 244.043L329.918 244.702L329.929 244.715L329.941 244.727L330.67 244.043ZM340.033 244.043L339.303 243.359L339.291 243.372L339.28 243.385L340.033 244.043ZM341.725 177.04V176.04H340.725V177.04H341.725ZM353.681 177.04H354.681V176.04H353.681V177.04ZM348.944 252.052L349.675 252.734L349.682 252.726L348.944 252.052ZM335.182 256.128C329.356 256.128 325.069 254.495 322.152 251.37L320.69 252.734C324.09 256.377 328.977 258.128 335.182 258.128V256.128ZM322.159 251.378C319.222 248.161 317.683 243.51 317.683 237.275H315.683C315.683 243.825 317.302 249.025 320.682 252.726L322.159 251.378ZM317.683 237.275V177.04H315.683V237.275H317.683ZM316.683 178.04H329.091V176.04H316.683V178.04ZM328.091 177.04V238.178H330.091V177.04H328.091ZM328.091 238.178C328.091 240.972 328.627 243.226 329.918 244.702L331.423 243.385C330.608 242.454 330.091 240.797 330.091 238.178H328.091ZM329.941 244.727C331.3 246.177 333.17 246.848 335.408 246.848V244.848C333.585 244.848 332.296 244.316 331.4 243.359L329.941 244.727ZM335.408 246.848C337.643 246.848 339.494 246.178 340.785 244.702L339.28 243.385C338.466 244.315 337.233 244.848 335.408 244.848V246.848ZM340.762 244.727C342.146 243.251 342.725 240.985 342.725 238.178H340.725C340.725 240.784 340.175 242.429 339.303 243.359L340.762 244.727ZM342.725 238.178V177.04H340.725V238.178H342.725ZM341.725 178.04H353.681V176.04H341.725V178.04ZM352.681 177.04V237.275H354.681V177.04H352.681ZM352.681 237.275C352.681 243.51 351.142 248.161 348.205 251.378L349.682 252.726C353.062 249.025 354.681 243.825 354.681 237.275H352.681ZM348.213 251.37C345.296 254.495 341.009 256.128 335.182 256.128V258.128C341.388 258.128 346.275 256.377 349.675 252.734L348.213 251.37ZM374.142 177.04V176.04H373.292L373.155 176.879L374.142 177.04ZM390.949 177.04L391.936 176.879L391.8 176.04H390.949V177.04ZM403.809 256V257H404.985L404.796 255.839L403.809 256ZM391.401 256L390.411 256.142L390.534 257H391.401V256ZM389.145 240.321L390.134 240.178L388.145 240.321H389.145ZM389.145 240.546V241.546H390.145V240.546H389.145ZM375.045 240.546V239.546H374.18L374.055 240.402L375.045 240.546ZM372.789 256V257H373.653L373.778 256.144L372.789 256ZM361.283 256L360.296 255.839L360.107 257H361.283V256ZM387.678 229.83V230.83H388.83L388.668 229.69L387.678 229.83ZM382.151 190.802L383.141 190.661L383.019 189.802H382.151V190.802ZM381.925 190.802V189.802H381.055L380.935 190.664L381.925 190.802ZM376.511 229.83L375.521 229.693L375.363 230.83H376.511V229.83ZM374.142 178.04H390.949V176.04H374.142V178.04ZM389.962 177.201L402.822 256.161L404.796 255.839L391.936 176.879L389.962 177.201ZM403.809 255H391.401V257H403.809V255ZM392.39 255.858L390.134 240.178L388.155 240.463L390.411 256.142L392.39 255.858ZM388.145 240.321V240.546H390.145V240.321H388.145ZM389.145 239.546H375.045V241.546H389.145V239.546ZM374.055 240.402L371.799 255.856L373.778 256.144L376.034 240.691L374.055 240.402ZM372.789 255H361.283V257H372.789V255ZM362.27 256.161L375.129 177.201L373.155 176.879L360.296 255.839L362.27 256.161ZM388.668 229.69L383.141 190.661L381.161 190.942L386.688 229.971L388.668 229.69ZM382.151 189.802H381.925V191.802H382.151V189.802ZM380.935 190.664L375.521 229.693L377.502 229.968L382.916 190.939L380.935 190.664ZM376.511 230.83H387.678V228.83H376.511V230.83ZM412.084 177.04V176.04H411.084V177.04H412.084ZM424.492 177.04H425.492V176.04H424.492V177.04ZM424.492 244.72H423.492V245.72H424.492V244.72ZM444.909 244.72H445.909V243.72H444.909V244.72ZM444.909 256V257H445.909V256H444.909ZM412.084 256H411.084V257H412.084V256ZM412.084 178.04H424.492V176.04H412.084V178.04ZM423.492 177.04V244.72H425.492V177.04H423.492ZM424.492 245.72H444.909V243.72H424.492V245.72ZM443.909 244.72V256H445.909V244.72H443.909ZM444.909 255H412.084V257H444.909V255ZM413.084 256V177.04H411.084V256H413.084Z" fill="#222222" mask="url(#path-5-outside-2_301_34)"/>
<rect x="5" y="145" width="140" height="140" fill="url(#paint0_linear_301_34)" stroke="#222222" stroke-width="10"/>
<rect x="360" y="5" width="140" height="140" fill="#FD5C1D" stroke="#222222" stroke-width="10"/>
<mask id="path-9-inside-3_301_34" fill="white">
<path fill-rule="evenodd" clip-rule="evenodd" d="M495.333 10H430.167L365 10L365 75.1667V140.333H430.167H495.333V75.1667V10ZM495.333 75.1667C459.343 75.1667 430.167 104.343 430.167 140.333C430.167 104.343 400.991 75.1667 365 75.1667C400.991 75.1667 430.167 45.9906 430.167 10C430.167 45.9905 459.343 75.1667 495.333 75.1667Z"/>
</mask>
<path fill-rule="evenodd" clip-rule="evenodd" d="M495.333 10H430.167L365 10L365 75.1667V140.333H430.167H495.333V75.1667V10ZM495.333 75.1667C459.343 75.1667 430.167 104.343 430.167 140.333C430.167 104.343 400.991 75.1667 365 75.1667C400.991 75.1667 430.167 45.9906 430.167 10C430.167 45.9905 459.343 75.1667 495.333 75.1667Z" fill="white"/>
<path d="M430.167 10V9.78333V10ZM495.333 10H495.55V9.78333H495.333V10ZM365 10L365 9.78337L364.783 9.78337L364.783 10L365 10ZM365 75.1667H364.783H365ZM365 140.333H364.783V140.55H365V140.333ZM495.333 140.333V140.55H495.55V140.333H495.333ZM430.167 10.2167H495.333V9.78333H430.167V10.2167ZM365 10.2167L430.167 10.2167V9.78333L365 9.78337L365 10.2167ZM365.217 75.1667L365.217 10L364.783 10L364.783 75.1667H365.217ZM364.783 75.1667V140.333H365.217V75.1667H364.783ZM365 140.55H430.167V140.117H365V140.55ZM430.167 140.55H495.333V140.117H430.167V140.55ZM495.55 140.333V75.1667H495.117V140.333H495.55ZM495.117 10V75.1667H495.55V10H495.117ZM495.333 74.95C459.223 74.95 429.95 104.223 429.95 140.333H430.383C430.383 104.462 459.462 75.3833 495.333 75.3833V74.95ZM430.383 140.333C430.383 104.223 401.11 74.95 365 74.95V75.3833C400.871 75.3833 429.95 104.462 429.95 140.333H430.383ZM429.95 10C429.95 45.8709 400.871 74.95 365 74.95L365 75.3833C401.11 75.3834 430.383 46.1102 430.383 10L429.95 10ZM495.333 74.95C459.462 74.95 430.383 45.8709 430.383 10H429.95C429.95 46.1102 459.223 75.3833 495.333 75.3833V74.95Z" fill="#222222" mask="url(#path-9-inside-3_301_34)"/>
<circle cx="75" cy="215" r="36.8918" fill="#0099FF" stroke="#222222" stroke-width="0.216306"/>
<defs>
<linearGradient id="paint0_linear_301_34" x1="12" y1="144.5" x2="129" y2="272" gradientUnits="userSpaceOnUse">
<stop stop-color="#00C2FF"/>
<stop offset="0.536275" stop-color="#373FFF"/>
<stop offset="1" stop-color="#8F00FF"/>
<stop offset="1" stop-color="#8F00FF"/>
</linearGradient>
</defs>
</svg>
